HIERARCHY
ROOT Hips
{
 OFFSET 0.000000 0.000000 0.000000
 CHANNELS 6 Xposition Yposition Zposition Yrotation Xrotation Zrotation
 JOINT Chest
 {
  OFFSET 0.000000 9.857222 0.000240
  CHANNELS 3 Yrotation Xrotation Zrotation
  JOINT Chest2
  {
   OFFSET 0.000000 10.876940 -0.000436
   CHANNELS 3 Yrotation Xrotation Zrotation
   JOINT Chest3
   {
    OFFSET 0.000000 9.827798 0.000000
    CHANNELS 3 Yrotation Xrotation Zrotation
    JOINT Chest4
    {
     OFFSET 0.000000 9.827798 0.000000
     CHANNELS 3 Yrotation Xrotation Zrotation
     JOINT Neck
     {
      OFFSET 0.000000 13.831992 0.000000
      CHANNELS 3 Yrotation Xrotation Zrotation
      JOINT Head
      {
       OFFSET 0.000000 9.147643 -0.001036
       CHANNELS 3 Yrotation Xrotation Zrotation
       End Site
       {
        OFFSET 0.000000 17.515799 -0.000541
       }
      }
     }
     JOINT RightCollar
     {
      OFFSET -3.001579 7.717577 0.000000
      CHANNELS 3 Yrotation Xrotation Zrotation
      JOINT RightShoulder
      {
       OFFSET -14.002642 0.000000 0.000000
       CHANNELS 3 Yrotation Xrotation Zrotation
       JOINT RightElbow
       {
        OFFSET -30.053852 0.000000 0.000000
        CHANNELS 3 Yrotation Xrotation Zrotation
        JOINT RightWrist
        {
         OFFSET -24.564923 0.000000 -0.000000
         CHANNELS 3 Yrotation Xrotation Zrotation
         End Site
         {
          OFFSET -18.334355 0.000000 0.000000
         }
        }
       }
      }
     }
     JOINT LeftCollar
     {
      OFFSET 3.001579 7.717577 0.000000
      CHANNELS 3 Yrotation Xrotation Zrotation
      JOINT LeftShoulder
      {
       OFFSET 14.002642 0.000000 0.000000
       CHANNELS 3 Yrotation Xrotation Zrotation
       JOINT LeftElbow
       {
        OFFSET 30.053852 0.000000 0.000000
        CHANNELS 3 Yrotation Xrotation Zrotation
        JOINT LeftWrist
        {
         OFFSET 24.564923 0.000000 -0.000000
         CHANNELS 3 Yrotation Xrotation Zrotation
         End Site
         {
          OFFSET 18.334355 0.000000 0.000000
         }
        }
       }
      }
     }
    }
   }
  }
 }
 JOINT RightHip
 {
  OFFSET -8.003235 -0.001175 -0.000120
  CHANNELS 3 Yrotation Xrotation Zrotation
  JOINT RightKnee
  {
   OFFSET 0.000000 -41.759727 0.000113
   CHANNELS 3 Yrotation Xrotation Zrotation
   JOINT RightAnkle
   {
    OFFSET 0.000000 -40.728748 0.000159
    CHANNELS 3 Yrotation Xrotation Zrotation
    JOINT RightToe
    {
     OFFSET 0.000000 -6.515296 14.732841
     CHANNELS 3 Yrotation Xrotation Zrotation
     End Site
     {
      OFFSET 0.000000 -1.502839 6.412115
     }
    }
   }
  }
 }
 JOINT LeftHip
 {
  OFFSET 8.003235 -0.001175 -0.000120
  CHANNELS 3 Yrotation Xrotation Zrotation
  JOINT LeftKnee
  {
   OFFSET 0.000000 -41.759727 0.000113
   CHANNELS 3 Yrotation Xrotation Zrotation
   JOINT LeftAnkle
   {
    OFFSET 0.000000 -40.728748 0.000159
    CHANNELS 3 Yrotation Xrotation Zrotation
    JOINT LeftToe
    {
     OFFSET 0.000000 -6.515296 14.732841
     CHANNELS 3 Yrotation Xrotation Zrotation
     End Site
     {
      OFFSET 0.000000 -1.502839 6.412115
     }
    }
   }
  }
 }
}
MOTION
Frames: 16
Frame Time: 0.016667
9.789895 89.693686 19.185929 -29.987273 -14.659124 10.197266 0.495209 15.217100 11.511338 0.529893 6.357287 4.766481 0.529893 6.357287 4.766481 0.347271 4.772439 3.565654 -4.490676 20.404042 -1.070821 -7.850742 1.755386 -0.599466 10.270735 -8.743521 6.064176 15.850401 -6.729454 45.356463 12.128552 -2.239896 -4.275023 -6.600956 -3.976683 -16.699069 -8.708370 -5.368645 -3.237474 9.887953 1.639526 -12.893241 -25.097323 -17.952181 31.751544 -4.135605 12.666675 16.457710 0.927112 22.028261 -21.032165 -16.139949 -1.646227 3.279215 -1.714578 -4.430369 6.706169 -0.417612 1.537676 -0.123875 4.649007 13.219789 -0.713723 3.010684 11.630073 0.547838 -1.223308 -5.796586 -6.807118 -0.228654 -1.158948 -0.056390
9.942939 89.759780 19.151889 -30.220301 -14.567666 10.773303 0.420985 15.279484 11.849492 0.518005 6.365175 4.908371 0.518005 6.365175 4.908371 0.336818 4.778403 3.672070 -4.546803 20.331767 -1.179432 -7.921656 1.617192 -0.776389 10.746457 -8.858989 5.869293 15.821171 -6.465002 46.063972 11.618448 -2.602571 -4.733645 -6.326564 -4.067764 -16.294525 -7.918473 -5.526378 -3.035759 9.076039 2.237146 -11.986438 -25.364768 -18.081926 32.844126 -4.880314 12.740761 16.568259 1.145465 22.031715 -21.590914 -16.526656 -1.738642 3.258860 -1.593915 -4.227301 6.793547 -0.420148 1.476171 -0.137558 4.455276 13.044829 -1.332186 3.245392 11.826283 0.422090 -1.203011 -5.789809 -6.703186 -0.243038 -1.236577 -0.035914
10.103449 89.825286 19.123563 -30.425182 -14.501254 11.366211 0.327935 15.275392 12.180144 0.487175 6.350853 5.057935 0.487175 6.350853 5.057935 0.312277 4.767555 3.784478 -4.612091 20.324590 -1.298973 -8.004533 1.599451 -0.973842 11.148749 -8.954709 5.723084 16.042950 -5.762791 46.725792 11.292704 -3.200275 -5.275113 -6.195731 -4.042576 -15.870481 -7.180500 -5.441323 -2.946663 8.129949 2.992787 -11.322883 -25.963765 -18.498780 34.556137 -5.599429 12.472981 16.698973 1.147333 22.034282 -22.249624 -16.665836 -1.884858 3.245705 -1.569082 -4.007050 6.891083 -0.436894 1.417620 -0.151787 4.339652 12.916069 -1.954016 3.356832 11.974756 0.291858 -1.153624 -5.788366 -6.595233 -0.251369 -1.284662 -0.020028
10.262183 89.894924 19.104828 -30.613124 -14.503456 11.958214 0.202028 15.249531 12.530850 0.423059 6.341350 5.212666 0.423059 6.341350 5.212666 0.262706 4.760027 3.901094 -4.677630 20.346314 -1.435885 -8.082072 1.634360 -1.204304 11.534637 -9.139193 5.569749 16.287224 -4.810048 47.266009 11.020383 -3.527409 -5.588141 -6.295810 -4.038990 -15.590871 -6.522544 -5.367971 -2.996994 7.694499 3.296806 -10.761070 -27.133359 -18.275080 36.564956 -6.725020 11.996188 17.004562 1.072690 22.077039 -22.891788 -16.605470 -2.034305 3.163867 -1.648017 -3.789020 6.997189 -0.422162 1.348839 -0.147310 4.295562 12.894202 -2.588755 3.398021 12.047668 0.232102 -1.116310 -5.762770 -6.508770 -0.260306 -1.322600 -0.016581
10.389431 89.969456 19.084872 -30.839111 -14.562998 12.537843 0.110183 15.219098 12.901975 0.352813 6.349360 5.364531 0.352813 6.349360 5.364531 0.208418 4.765547 4.015592 -4.759155 20.365160 -1.575971 -8.187847 1.664228 -1.435594 11.851675 -9.372281 5.384158 16.399045 -3.937039 47.760470 10.705210 -3.404803 -5.700210 -6.477093 -4.121976 -15.453822 -5.935577 -5.352290 -3.100625 7.524929 3.438024 -10.289117 -28.982222 -17.728787 39.070935 -8.361304 11.964055 17.669251 1.068673 22.179271 -23.441307 -16.496315 -2.164771 3.014276 -1.800767 -3.586543 7.095758 -0.376863 1.277067 -0.126020 4.433453 12.990310 -3.130374 3.376072 12.044623 0.169292 -1.189063 -5.711491 -6.423711 -0.260170 -1.356240 -0.021065
10.483463 90.043117 19.052506 -31.107451 -14.565306 13.099311 0.084848 15.117891 13.275625 0.298657 6.341537 5.513547 0.298657 6.341537 5.513547 0.166358 4.759302 4.127818 -4.866351 20.387151 -1.713580 -8.341086 1.700761 -1.654861 12.061472 -9.456768 5.203358 16.461614 -3.263408 48.220327 10.416357 -3.186074 -5.782196 -6.629616 -4.223738 -15.340884 -5.371700 -5.227019 -3.229580 7.321374 3.326034 -9.931403 -31.425184 -16.754402 41.934370 -9.862489 12.669930 18.793595 1.184890 22.243725 -23.898855 -16.460117 -2.282523 2.835416 -1.908890 -3.414332 7.173413 -0.322850 1.225979 -0.097973 4.668357 13.072158 -3.596951 3.283756 12.001768 0.066359 -1.235432 -5.657407 -6.334022 -0.260347 -1.375386 -0.034381
10.583811 90.106363 19.014311 -31.429699 -14.393149 13.665361 0.165699 14.972003 13.596418 0.291601 6.315418 5.647530 0.291601 6.315418 5.647530 0.159922 4.739734 4.228324 -4.985151 20.375553 -1.814118 -8.527166 1.677233 -1.801506 12.163704 -9.671576 5.080573 16.457142 -2.588726 48.706259 10.265507 -3.044739 -5.919790 -6.733120 -4.323816 -15.129619 -4.890392 -5.145530 -3.302639 7.069715 3.233107 -9.579174 -33.492904 -14.825566 44.712596 -10.977559 12.548042 20.034339 1.442678 22.159377 -24.366564 -16.479711 -2.364059 2.705318 -2.007057 -3.304464 7.233963 -0.281497 1.226451 -0.074145 4.890719 12.990187 -4.156588 3.285266 11.976008 0.083367 -1.225042 -5.660887 -6.296715 -0.273109 -1.348927 -0.052614
10.696185 90.156464 18.975295 -31.729715 -14.151354 14.221531 0.265515 14.836833 13.860538 0.310081 6.275961 5.766955 0.310081 6.275961 5.766955 0.172910 4.710389 4.317685 -5.097942 20.342689 -1.888535 -8.710509 1.615451 -1.901297 12.361512 -10.072452 5.054753 16.185652 -1.836630 49.185297 10.157406 -2.854213 -6.080103 -6.799316 -4.238659 -14.867477 -4.448815 -5.051777 -3.369625 6.814861 3.230683 -9.173513 -35.713127 -12.830145 47.501516 -11.748255 12.567716 20.571960 1.780895 22.025722 -24.829985 -16.612339 -2.412828 2.601153 -2.036454 -3.241714 7.303273 -0.264424 1.262716 -0.063870 5.064000 12.822835 -4.747512 3.397887 11.973682 0.137764 -1.259162 -5.699147 -6.266348 -0.280990 -1.295287 -0.068315
10.816073 90.202883 18.919025 -32.009709 -13.935655 14.775667 0.390776 14.667750 14.091287 0.314280 6.247555 5.873225 0.314280 6.247555 5.873225 0.175240 4.689195 4.397319 -5.194621 20.318222 -1.943512 -8.870265 1.569827 -1.970970 12.658418 -10.282685 5.059335 15.719158 -1.319296 49.582428 9.896216 -2.368842 -6.215374 -6.835583 -4.034490 -14.554899 -4.056245 -4.955810 -3.415320 6.519426 3.221651 -8.678579 -37.322992 -10.303484 49.926490 -12.206488 12.287988 20.750333 2.228929 21.948665 -25.237237 -16.849487 -2.430854 2.464313 -2.055591 -3.200777 7.388974 -0.240856 1.308477 -0.055760 5.161259 12.655163 -5.319785 3.536666 11.989273 0.130233 -1.292679 -5.764317 -6.206977 -0.278939 -1.211510 -0.081534
10.946176 90.261623 18.859516 -32.241660 -13.833805 15.353224 0.498932 14.505366 14.293009 0.309046 6.229077 5.966515 0.309046 6.229077 5.966515 0.170545 4.675349 4.467307 -5.291526 20.310771 -1.980899 -9.035503 1.556759 -2.009498 12.882837 -10.129597 5.065464 15.268135 -1.131682 49.798586 9.487074 -1.664893 -6.135661 -6.882983 -3.830934 -14.243626 -3.723783 -4.744172 -3.433599 6.145265 2.861651 -8.041292 -38.447596 -7.480503 51.824478 -12.518618 11.826714 20.786292 2.649461 21.986711 -25.670118 -17.089125 -2.416266 2.323353 -2.132195 -3.115196 7.488429 -0.213861 1.298042 -0.050289 5.127556 12.580757 -5.938289 3.625080 11.980483 0.101089 -1.232811 -5.771599 -6.135770 -0.283080 -1.157365 -0.094701
11.097284 90.333325 18.818725 -32.434927 -13.895744 15.950456 0.533539 14.436908 14.482485 0.302374 6.225242 6.052742 0.302374 6.225242 6.052742 0.164702 4.672464 4.531989 -5.381967 20.306724 -2.018357 -9.188899 1.549816 -2.050278 13.118863 -9.916796 5.079790 14.823466 -1.024411 49.924076 9.058184 -0.973379 -5.927396 -6.964096 -3.738123 -13.879020 -3.467737 -4.590501 -3.390069 5.741736 2.465117 -7.280833 -39.672197 -5.019615 53.407586 -12.763376 11.680048 20.622004 2.943023 22.177663 -26.205182 -17.280671 -2.373939 2.261473 -2.226673 -3.004767 7.591484 -0.206689 1.245168 -0.060027 5.034873 12.655168 -6.625952 3.631276 11.954380 0.140008 -1.122613 -5.696954 -6.087078 -0.300173 -1.170860 -0.104540
11.248878 90.410811 18.783218 -32.553300 -14.049257 16.534243 0.485097 14.433506 14.700336 0.273934 6.231057 6.145905 0.273934 6.231057 6.145905 0.142379 4.676603 4.602072 -5.450336 20.308866 -2.090636 -9.291458 1.551631 -2.161332 13.560321 -9.881115 5.095583 14.323241 -0.697029 50.023640 8.697329 -0.799176 -6.079361 -7.052354 -3.672616 -13.327565 -3.199072 -4.479428 -3.313623 5.180574 2.138327 -6.525405 -40.719460 -2.780878 54.874780 -12.895201 11.380569 20.428852 3.154322 22.490328 -26.744436 -17.625636 -2.357374 2.251631 -2.157996 -2.885044 7.664078 -0.186840 1.176292 -0.063264 4.836524 12.765202 -7.305635 3.524581 11.974337 0.134374 -0.901135 -5.611358 -6.026769 -0.308610 -1.209514 -0.111993
11.373965 90.480944 18.730379 -32.602228 -14.143309 17.095222 0.420440 14.393315 14.927330 0.236911 6.217789 6.240764 0.236911 6.217789 6.240764 0.113804 4.666333 4.673549 -5.491467 20.327519 -2.162183 -9.344399 1.583263 -2.280155 13.998825 -9.808095 5.155324 13.997899 -0.376104 50.183829 8.317555 -1.296890 -6.869379 -7.147209 -3.613149 -12.610193 -2.869896 -4.467402 -3.113714 4.507792 2.216030 -5.640772 -41.812954 -1.096751 56.187011 -13.004305 11.148169 20.325378 3.209061 22.753183 -27.267653 -17.969324 -2.476137 2.212491 -2.110026 -2.710965 7.729412 -0.174151 1.130676 -0.059119 4.548342 12.753366 -7.876459 3.550099 12.065476 -0.032268 -0.805233 -5.565155 -5.908742 -0.298072 -1.235127 -0.110149
11.494423 90.549555 18.700377 -32.603597 -14.439574 17.691117 0.222036 14.474405 15.128924 0.164743 6.231213 6.335754 0.164743 6.231213 6.335754 0.058613 4.675709 4.745434 -5.488447 20.352206 -2.246680 -9.312986 1.624063 -2.436064 14.402896 -9.630139 5.214409 13.893137 -0.317212 50.301766 7.892848 -2.148027 -7.678322 -7.401028 -3.589295 -12.263190 -2.488928 -4.486974 -2.841382 3.859632 2.824062 -4.649379 -42.974182 -0.025673 57.580688 -13.114074 11.057113 20.250681 2.972852 23.194240 -27.919556 -18.120892 -2.659318 2.224517 -2.077991 -2.547088 7.794006 -0.201080 1.095578 -0.067619 4.195280 12.952814 -8.512722 3.788985 12.104211 -0.083260 -0.926259 -5.472103 -5.816078 -0.299303 -1.281638 -0.108896
11.632251 90.629884 18.699579 -32.676108 -14.953981 18.338117 -0.066781 14.653665 15.304021 0.053158 6.289633 6.424092 0.053158 6.289633 6.424092 -0.026529 4.718399 4.812668 -5.439882 20.386743 -2.349955 -9.192933 1.680965 -2.640229 14.929629 -9.683697 5.294116 13.681887 -0.123190 50.190500 7.531176 -3.001554 -8.109720 -7.863715 -3.597017 -12.434348 -2.095681 -4.389559 -2.513399 3.197525 3.698080 -3.752636 -44.134666 0.750975 59.254389 -13.142521 11.152186 19.984221 2.630346 23.830313 -28.678623 -18.164754 -2.803037 2.280502 -2.031889 -2.376538 7.855082 -0.222787 1.012887 -0.071790 4.013660 13.444027 -9.177854 3.991277 12.088496 -0.054211 -1.133749 -5.354216 -5.728473 -0.308524 -1.336604 -0.110996
11.750587 90.718527 18.704231 -32.860790 -15.618488 18.959374 -0.418439 14.919660 15.501393 -0.082502 6.383335 6.517324 -0.082502 6.383335 6.517324 -0.130158 4.787265 4.883786 -5.352134 20.431975 -2.475689 -8.994817 1.755895 -2.897397 15.634677 -10.115321 5.283272 13.037076 0.450495 49.834825 7.335674 -3.520894 -8.229620 -8.517069 -3.508636 -12.744747 -1.634192 -4.302468 -2.145239 2.593766 4.668575 -2.887292 -44.891155 1.523836 60.626117 -13.163884 11.029222 19.918231 2.399031 24.641223 -29.341650 -18.263836 -2.923704 2.321187 -1.972796 -2.181535 7.907248 -0.246830 0.893204 -0.071720 4.121381 14.201984 -9.636053 4.013703 11.991841 -0.153543 -1.434825 -5.185628 -5.591353 -0.302299 -1.417269 -0.106946
